<svg width="28" height="28" viewBox="0 0 28 28" fill="none" xmlns="http://www.w3.org/2000/svg">
<path d="M4.66634 14C4.66634 8.84538 8.84501 4.66671 13.9997 4.66671C19.1544 4.66671 23.333 8.84538 23.333 14C23.333 19.1547 19.1544 23.3334 13.9997 23.3334C8.84501 23.3334 4.66634 19.1547 4.66634 14ZM13.9997 2.33337C7.55635 2.33337 2.33301 7.55672 2.33301 14C2.33301 20.4433 7.55635 25.6667 13.9997 25.6667C20.4429 25.6667 25.6663 20.4433 25.6663 14C25.6663 7.55672 20.4429 2.33337 13.9997 2.33337ZM20.3663 11.0333L18.7164 9.38341L12.833 15.2668L9.57464 12.0084L7.92471 13.6583L12.833 18.5666L20.3663 11.0333Z" fill="white"/>
</svg>
