<svg width="59" height="59" viewBox="0 0 59 59" fill="none" xmlns="http://www.w3.org/2000/svg">
<path d="M22.7571 29.5451C22.4213 29.4058 22.0518 29.3692 21.6952 29.44C21.3386 29.5107 21.0111 29.6856 20.7539 29.9426L15.7803 34.9184H11.0273C10.5398 34.9184 10.0724 35.1121 9.72774 35.4567C9.38308 35.8014 9.18945 36.2688 9.18945 36.7562V45.9453C9.18945 46.4327 9.38308 46.9002 9.72774 47.2448C10.0724 47.5895 10.5398 47.7831 11.0273 47.7831H15.7803L20.7539 52.759C21.0109 53.0163 21.3385 53.1916 21.6952 53.2626C22.0519 53.3336 22.4216 53.2972 22.7576 53.158C23.0936 53.0188 23.3808 52.783 23.5827 52.4805C23.7846 52.178 23.8922 51.8224 23.892 51.4587V31.2428C23.8919 30.8793 23.784 30.524 23.582 30.2218C23.38 29.9197 23.0929 29.6842 22.7571 29.5451ZM20.2163 47.0227L17.841 44.6451C17.6702 44.4744 17.4674 44.3391 17.2443 44.2469C17.0212 44.1547 16.7821 44.1073 16.5407 44.1075H12.8651V38.5941H16.5407C16.7821 38.5942 17.0212 38.5469 17.2443 38.4546C17.4674 38.3624 17.6702 38.2271 17.841 38.0565L20.2163 35.6788V47.0227ZM34.9188 41.3508C34.9169 42.9717 34.4921 44.5642 33.6863 45.9707C32.8805 47.3772 31.7217 48.5491 30.3243 49.3705C29.9058 49.5789 29.4237 49.6199 28.976 49.4853C28.5284 49.3508 28.1488 49.0506 27.9146 48.6461C27.6804 48.2415 27.6092 47.7629 27.7155 47.3077C27.8217 46.8525 28.0974 46.4548 28.4865 46.1957C29.329 45.6984 30.0273 44.9899 30.5124 44.1403C30.9975 43.2906 31.2527 42.3292 31.2527 41.3508C31.2527 40.3724 30.9975 39.4109 30.5124 38.5613C30.0273 37.7116 29.329 37.0032 28.4865 36.5058C28.0974 36.2467 27.8217 35.8491 27.7155 35.3939C27.6092 34.9386 27.6804 34.46 27.9146 34.0555C28.1488 33.6509 28.5284 33.3508 28.976 33.2162C29.4237 33.0816 29.9058 33.1227 30.3243 33.331C31.7217 34.1525 32.8805 35.3244 33.6863 36.7309C34.4921 38.1374 34.9169 39.7298 34.9188 41.3508ZM49.0838 18.9157L36.2191 6.05099C36.0483 5.88038 35.8455 5.74509 35.6224 5.65285C35.3993 5.56062 35.1602 5.51324 34.9188 5.51343H12.8651C11.8902 5.51343 10.9553 5.90068 10.266 6.58999C9.57671 7.27931 9.18945 8.21422 9.18945 9.18905V27.5672C9.18945 28.0546 9.38308 28.5221 9.72774 28.8667C10.0724 29.2114 10.5398 29.405 11.0273 29.405C11.5147 29.405 11.9821 29.2114 12.3268 28.8667C12.6715 28.5221 12.8651 28.0546 12.8651 27.5672V9.18905H33.081V20.2159C33.081 20.7033 33.2746 21.1708 33.6193 21.5155C33.964 21.8601 34.4314 22.0537 34.9188 22.0537H45.9457V49.6209H38.5945C38.107 49.6209 37.6396 49.8146 37.2949 50.1592C36.9503 50.5039 36.7566 50.9713 36.7566 51.4587C36.7566 51.9462 36.9503 52.4136 37.2949 52.7583C37.6396 53.1029 38.107 53.2966 38.5945 53.2966H45.9457C46.9205 53.2966 47.8554 52.9093 48.5448 52.22C49.2341 51.5307 49.6213 50.5958 49.6213 49.6209V20.2159C49.6215 19.9745 49.5741 19.7354 49.4819 19.5123C49.3897 19.2892 49.2544 19.0865 49.0838 18.9157ZM36.7566 11.7873L43.3475 18.3781H36.7566V11.7873Z" fill="white"/>
</svg>
