<svg width="59" height="59" viewBox="0 0 59 59" fill="none" xmlns="http://www.w3.org/2000/svg">
<path d="M42.2695 55.1344C39.7251 55.1344 37.2378 54.3799 35.1222 52.9663C33.0067 51.5527 31.3578 49.5435 30.3841 47.1928C29.4104 44.8421 29.1556 42.2554 29.652 39.7599C30.1484 37.2644 31.3736 34.9721 33.1728 33.173C34.9719 31.3738 37.2642 30.1486 39.7597 29.6522C42.2552 29.1558 44.8419 29.4105 47.1926 30.3842C49.5433 31.3579 51.5525 33.0068 52.9661 35.1224C54.3797 37.238 55.1342 39.7253 55.1342 42.2697C55.1293 45.6801 53.7724 48.9495 51.3608 51.361C48.9493 53.7725 45.6799 55.1295 42.2695 55.1344ZM42.2695 33.0806C40.4521 33.0806 38.6754 33.6195 37.1643 34.6292C35.6532 35.6389 34.4754 37.0741 33.7799 38.7532C33.0844 40.4322 32.9024 42.2799 33.257 44.0624C33.6115 45.8449 34.4867 47.4822 35.7718 48.7673C37.0569 50.0524 38.6943 50.9276 40.4768 51.2822C42.2593 51.6367 44.1069 51.4548 45.786 50.7593C47.4651 50.0638 48.9002 48.886 49.9099 47.3748C50.9196 45.8637 51.4585 44.0871 51.4585 42.2697C51.4556 39.8335 50.4866 37.4979 48.7639 35.7752C47.0413 34.0526 44.7057 33.0835 42.2695 33.0806Z" fill="white"/>
<path d="M47.7833 45.1844L44.1076 41.5088V36.7562H40.432V43.0305L45.1846 47.7831L47.7833 45.1844ZM14.7026 29.405H25.7295V33.0806H14.7026V29.405ZM14.7026 18.3781H36.7564V22.0537H14.7026V18.3781Z" fill="white"/>
<path d="M47.7833 7.35122C47.7833 6.37639 47.396 5.44148 46.7067 4.75216C46.0174 4.06285 45.0825 3.6756 44.1077 3.6756H7.35142C6.37658 3.6756 5.44167 4.06285 4.75236 4.75216C4.06305 5.44148 3.6758 6.37639 3.6758 7.35122V31.2428C3.6715 34.9081 4.66558 38.5053 6.5513 41.6483C8.43702 44.7913 11.1432 47.3613 14.3792 49.0824L23.8917 54.1548V49.9885L16.1104 45.8387C13.4633 44.4297 11.2496 42.3269 9.70654 39.7556C8.16351 37.1843 7.34937 34.2415 7.35142 31.2428V7.35122H44.1077V23.8915H47.7833V7.35122Z" fill="white"/>
</svg>
