<svg width="59" height="59" viewBox="0 0 59 59" fill="none" xmlns="http://www.w3.org/2000/svg">
<path d="M24.5039 18.3782C24.5039 18.0532 24.633 17.7416 24.8628 17.5118C25.0925 17.282 25.4042 17.153 25.7291 17.153H35.5308C35.8557 17.153 36.1674 17.282 36.3971 17.5118C36.6269 17.7416 36.756 18.0532 36.756 18.3782C36.756 18.7031 36.6269 19.0147 36.3971 19.2445C36.1674 19.4743 35.8557 19.6034 35.5308 19.6034H25.7291C25.4042 19.6034 25.0925 19.4743 24.8628 19.2445C24.633 19.0147 24.5039 18.7031 24.5039 18.3782ZM25.7291 22.0538C25.4042 22.0538 25.0925 22.1829 24.8628 22.4126C24.633 22.6424 24.5039 22.9541 24.5039 23.279C24.5039 23.6039 24.633 23.9156 24.8628 24.1453C25.0925 24.3751 25.4042 24.5042 25.7291 24.5042H35.5308C35.8557 24.5042 36.1674 24.3751 36.3971 24.1453C36.6269 23.9156 36.756 23.6039 36.756 23.279C36.756 22.9541 36.6269 22.6424 36.3971 22.4126C36.1674 22.1829 35.8557 22.0538 35.5308 22.0538H25.7291ZM24.5039 34.3059C24.5039 33.9809 24.633 33.6693 24.8628 33.4395C25.0925 33.2097 25.4042 33.0807 25.7291 33.0807H35.5308C35.8557 33.0807 36.1674 33.2097 36.3971 33.4395C36.6269 33.6693 36.756 33.9809 36.756 34.3059C36.756 34.6308 36.6269 34.9425 36.3971 35.1722C36.1674 35.402 35.8557 35.5311 35.5308 35.5311H25.7291C25.4042 35.5311 25.0925 35.402 24.8628 35.1722C24.633 34.9425 24.5039 34.6308 24.5039 34.3059ZM25.7291 37.9815C25.4042 37.9815 25.0925 38.1106 24.8628 38.3403C24.633 38.5701 24.5039 38.8818 24.5039 39.2067C24.5039 39.5316 24.633 39.8433 24.8628 40.0731C25.0925 40.3028 25.4042 40.4319 25.7291 40.4319H35.5308C35.8557 40.4319 36.1674 40.3028 36.3971 40.0731C36.6269 39.8433 36.756 39.5316 36.756 39.2067C36.756 38.8818 36.6269 38.5701 36.3971 38.3403C36.1674 38.1106 35.8557 37.9815 35.5308 37.9815H25.7291Z" fill="white"/>
<path fill-rule="evenodd" clip-rule="evenodd" d="M12.252 33.0806C12.252 32.7557 12.381 32.444 12.6108 32.2143C12.8406 31.9845 13.1522 31.8554 13.4772 31.8554H19.6032C19.9281 31.8554 20.2398 31.9845 20.4696 32.2143C20.6993 32.444 20.8284 32.7557 20.8284 33.0806V39.2067C20.8284 39.5316 20.6993 39.8432 20.4696 40.073C20.2398 40.3028 19.9281 40.4319 19.6032 40.4319H13.4772C13.1522 40.4319 12.8406 40.3028 12.6108 40.073C12.381 39.8432 12.252 39.5316 12.252 39.2067V33.0806ZM14.7024 34.3058V37.9814H18.378V34.3058H14.7024Z" fill="white"/>
<path d="M21.6947 19.2443C21.9179 19.0133 22.0414 18.7038 22.0386 18.3825C22.0358 18.0613 21.907 17.754 21.6798 17.5268C21.4526 17.2997 21.1453 17.1708 20.8241 17.168C20.5028 17.1652 20.1933 17.2887 19.9623 17.5119L15.9277 21.5465L14.3435 19.9623C14.1124 19.7391 13.8029 19.6156 13.4817 19.6184C13.1604 19.6212 12.8531 19.7501 12.6259 19.9772C12.3988 20.2044 12.2699 20.5117 12.2671 20.8329C12.2643 21.1542 12.3878 21.4637 12.611 21.6948L15.9277 25.0114L21.6947 19.2443Z" fill="white"/>
<path fill-rule="evenodd" clip-rule="evenodd" d="M12.2519 7.35126C10.9521 7.35126 9.70558 7.86759 8.78649 8.78668C7.86741 9.70576 7.35107 10.9523 7.35107 12.2521V46.5579C7.35107 47.8577 7.86741 49.1043 8.78649 50.0233C9.70558 50.9424 10.9521 51.4588 12.2519 51.4588H36.7561C38.0559 51.4588 39.3024 50.9424 40.2215 50.0233C41.1406 49.1043 41.6569 47.8577 41.6569 46.5579V12.2521C41.6569 10.9523 41.1406 9.70576 40.2215 8.78668C39.3024 7.86759 38.0559 7.35126 36.7561 7.35126H12.2519ZM9.80149 12.2521C9.80149 11.6022 10.0597 10.9789 10.5192 10.5194C10.9787 10.0598 11.602 9.80167 12.2519 9.80167H36.7561C37.406 9.80167 38.0292 10.0598 38.4888 10.5194C38.9483 10.9789 39.2065 11.6022 39.2065 12.2521V46.5579C39.2065 47.2078 38.9483 47.8311 38.4888 48.2906C38.0292 48.7502 37.406 49.0083 36.7561 49.0083H12.2519C11.602 49.0083 10.9787 48.7502 10.5192 48.2906C10.0597 47.8311 9.80149 47.2078 9.80149 46.5579V12.2521ZM44.1073 19.6033C44.1073 18.6285 44.4946 17.6936 45.1839 17.0043C45.8732 16.315 46.8081 15.9277 47.783 15.9277C48.7578 15.9277 49.6927 16.315 50.382 17.0043C51.0713 17.6936 51.4586 18.6285 51.4586 19.6033V44.4787L47.783 49.9922L44.1073 44.4787V19.6033ZM47.783 18.3781C47.458 18.3781 47.1464 18.5072 46.9166 18.737C46.6868 18.9668 46.5577 19.2784 46.5577 19.6033V22.0538H49.0082V19.6033C49.0082 19.2784 48.8791 18.9668 48.6493 18.737C48.4195 18.5072 48.1079 18.3781 47.783 18.3781ZM47.783 45.5741L46.5577 43.7363V24.5042H49.0082V43.7363L47.783 45.5741Z" fill="white"/>
</svg>
