<svg width="60" height="60" viewBox="0 0 60 60" fill="none" xmlns="http://www.w3.org/2000/svg">
<path d="M24.9578 50.2286H34.7595C34.7595 52.924 32.5541 55.1294 29.8587 55.1294C27.1632 55.1294 24.9578 52.924 24.9578 50.2286ZM20.057 47.7781H39.6604V42.8773H20.057V47.7781ZM48.2368 24.4991C48.2368 33.8597 41.7187 38.8586 38.9987 40.4269H20.7186C17.9986 38.8586 11.4805 33.8597 11.4805 24.4991C11.4805 14.3543 19.7139 6.12091 29.8587 6.12091C40.0034 6.12091 48.2368 14.3543 48.2368 24.4991ZM43.336 24.4991C43.336 17.0743 37.2834 11.0218 29.8587 11.0218C22.4339 11.0218 16.3813 17.0743 16.3813 24.4991C16.3813 30.5516 20.0325 34.0313 22.1398 35.526H37.5775C39.6849 34.0313 43.336 30.5516 43.336 24.4991Z" fill="white"/>
</svg>
