<svg width="73" height="73" viewBox="0 0 73 73" fill="none" xmlns="http://www.w3.org/2000/svg">
<path d="M36.5027 6.08325C19.6974 6.08325 6.08594 19.6947 6.08594 36.4999C6.08594 49.9593 14.7927 61.3275 26.8833 65.3577C28.4042 65.6239 28.9745 64.7114 28.9745 63.9129C28.9745 63.1905 28.9365 60.7952 28.9365 58.2478C21.2943 59.6546 19.3172 56.3848 18.7089 54.6739C18.3667 53.7994 16.8839 51.0999 15.5911 50.3775C14.5266 49.8072 13.0057 48.4004 15.5531 48.3624C17.9484 48.3244 19.6594 50.5676 20.2297 51.4801C22.9672 56.0806 27.3396 54.7879 29.0885 53.9895C29.3547 52.0124 30.1531 50.6817 31.0277 49.9213C24.2599 49.1609 17.188 46.5374 17.188 34.903C17.188 31.5952 18.3667 28.8577 20.3057 26.7286C20.0016 25.9681 18.937 22.8504 20.6099 18.6681C20.6099 18.6681 23.1573 17.8697 28.9745 21.7859C31.4079 21.1015 33.9933 20.7593 36.5787 20.7593C39.1641 20.7593 41.7495 21.1015 44.1829 21.7859C50.0001 17.8317 52.5475 18.6681 52.5475 18.6681C54.2204 22.8504 53.1558 25.9681 52.8516 26.7286C54.7907 28.8577 55.9693 31.5572 55.9693 34.903C55.9693 46.5754 48.8594 49.1609 42.0917 49.9213C43.1943 50.8718 44.1449 52.6968 44.1449 55.5484C44.1449 59.6166 44.1068 62.8864 44.1068 63.9129C44.1068 64.7114 44.6771 65.6619 46.198 65.3577C58.5791 61.1779 66.916 49.5678 66.9193 36.4999C66.9193 19.6947 53.3079 6.08325 36.5027 6.08325Z" fill="white"/>
</svg>
