<svg width="73" height="73" viewBox="0 0 73 73" fill="none" xmlns="http://www.w3.org/2000/svg">
<path d="M36.5027 27.3752C31.4614 27.3752 27.3776 31.4604 27.3776 36.5002C27.3776 41.5411 31.4629 45.6252 36.5027 45.6252C41.5436 45.6252 45.6277 41.5399 45.6277 36.5002C45.6277 31.4592 41.5424 27.3752 36.5027 27.3752ZM36.5027 21.2918C44.8989 21.2918 51.711 28.0963 51.711 36.5002C51.711 44.8967 44.9065 51.7085 36.5027 51.7085C28.1062 51.7085 21.2943 44.904 21.2943 36.5002C21.2943 28.1037 28.0988 21.2918 36.5027 21.2918ZM56.2735 20.5288C56.2735 22.6279 54.5677 24.331 52.4714 24.331C50.3724 24.331 48.6693 22.6253 48.6693 20.5288C48.6693 18.4324 50.3748 16.7293 52.4714 16.7293C54.565 16.7267 56.2735 18.4324 56.2735 20.5288ZM36.5027 12.1668C28.9761 12.1668 27.7493 12.1868 24.2486 12.3426C21.8636 12.4546 20.2648 12.7754 18.7794 13.3521C17.4593 13.864 16.507 14.4754 15.4924 15.49C14.4739 16.5085 13.8637 17.4582 13.3538 18.7789C12.7757 20.2678 12.455 21.864 12.3451 24.2457C12.1877 27.6039 12.1693 28.7775 12.1693 36.5002C12.1693 44.0268 12.1892 45.2535 12.345 48.7538C12.4571 51.1379 12.7783 52.739 13.3536 54.2209C13.8669 55.5428 14.4795 56.4973 15.4892 57.5071C16.5117 58.5282 17.4642 59.1405 18.7724 59.6454C20.276 60.2267 21.8737 60.5479 24.2482 60.6577C27.6063 60.8149 28.78 60.8335 36.5027 60.8335C44.0293 60.8335 45.256 60.8134 48.7563 60.6577C51.1352 60.5461 52.7376 60.2239 54.2234 59.6491C55.5417 59.1372 56.4992 58.5224 57.5096 57.5135C58.5322 56.4894 59.1433 55.5392 59.6488 54.2279C60.2286 52.7299 60.5504 51.13 60.6602 48.7547C60.8174 45.3964 60.836 44.2226 60.836 36.5002C60.836 28.9736 60.8159 27.7469 60.6602 24.2464C60.5482 21.8669 60.2261 20.2622 59.6507 18.7769C59.14 17.4605 58.5265 16.5053 57.5127 15.49C56.4925 14.4698 55.5453 13.8608 54.2237 13.3513C52.736 12.7738 51.1373 12.4526 48.7569 12.3427C45.3989 12.1852 44.2252 12.1668 36.5027 12.1668ZM36.5027 6.0835C44.7657 6.0835 45.7974 6.11391 49.0419 6.266C52.2786 6.41555 54.4865 6.92756 56.4256 7.68037C58.4303 8.45347 60.1236 9.49777 61.8142 11.1884C63.5023 12.8791 64.5468 14.5773 65.3224 16.5772C66.0725 18.5138 66.5847 20.724 66.7368 23.9609C66.8813 27.2053 66.9193 28.237 66.9193 36.5002C66.9193 44.7635 66.8889 45.7949 66.7368 49.0394C66.5872 52.2764 66.0725 54.484 65.3224 56.4231C64.5493 58.4281 63.5023 60.1211 61.8142 61.812C60.1236 63.5001 58.4227 64.5443 56.4256 65.32C54.4865 66.0703 52.2786 66.5822 49.0419 66.7343C45.7974 66.8788 44.7657 66.9168 36.5027 66.9168C28.2394 66.9168 27.2078 66.8864 23.9633 66.7343C20.7265 66.5847 18.5213 66.0703 16.5797 65.32C14.5772 64.5468 12.8815 63.5001 11.1909 61.812C9.50021 60.1211 8.45844 58.4205 7.68281 56.4231C6.93 54.484 6.42052 52.2764 6.26844 49.0394C6.12396 45.7949 6.08594 44.7635 6.08594 36.5002C6.08594 28.237 6.11635 27.2053 6.26844 23.9609C6.41797 20.7215 6.93 18.5163 7.68281 16.5772C8.45588 14.5748 9.50021 12.8791 11.1909 11.1884C12.8815 9.49777 14.5798 8.456 16.5797 7.68037C18.5187 6.92756 20.724 6.41808 23.9633 6.266C27.2078 6.12152 28.2394 6.0835 36.5027 6.0835Z" fill="white"/>
</svg>
